<svg width="58" height="23" viewBox="0 0 58 23" fill="none" xmlns="http://www.w3.org/2000/svg">
<path d="M23.5 14.1364H27.5V18.1364L22 17.6364L23.5 14.1364Z" fill="white"/>
<path d="M22 17.6364L27.5 18.1364L26 22L20.5 21.5L22 17.6364Z" fill="white"/>
<path d="M16.5 17.5L22 17.6364L20.5 21.5H16.5V17.5Z" fill="white"/>
<path d="M20 10H26L27.5 14.1364H23.5L20 10Z" fill="white"/>
<path d="M16 10H20L23.5 14.1364L18 14L16 10Z" fill="white"/>
<path d="M16 6H21L20 10H16V6Z" fill="white"/>
<path d="M18 2H23L21 6H16L18 2Z" fill="white"/>
<path d="M23 2H27V6H21L23 2Z" fill="white"/>
<path d="M28.5 19H32.5V23H28.5V19Z" fill="white"/>
<path d="M28.5 19H32.5V23H28.5V19Z" fill="white"/>
<path d="M32.5 19L36.5 18L36 21.5L32.5 23V19Z" fill="white"/>
<path d="M32.5 19L36.5 18L36 21.5L32.5 23V19Z" fill="white"/>
<path d="M32.5 19L36.5 18L36 21.5L32.5 23V19Z" fill="white"/>
<path d="M32.5 19L36.5 18L36 21.5L32.5 23V19Z" fill="white"/>
<path d="M36.5 18H40.5L40 21.5H36L36.5 18Z" fill="white"/>
<path d="M36.5 18H40.5L40 21.5H36L36.5 18Z" fill="white"/>
<path d="M37.5 14H41.5L40.5 18H36.5L37.5 14Z" fill="white"/>
<path d="M37.5 14H41.5L40.5 18H36.5L37.5 14Z" fill="white"/>
<path d="M36 9.5H40L41.5 14H37.5L36 9.5Z" fill="white"/>
<path d="M36 9.5H40L41.5 14H37.5L36 9.5Z" fill="white"/>
<path d="M35.5 8H40.125L40 9.5H36L35.5 8Z" fill="white"/>
<path d="M35.5 8H40.125L40 9.5H36L35.5 8Z" fill="white"/>
<path d="M36.5 4H41.125L40.125 8H35.5L36.5 4Z" fill="white"/>
<path d="M36.5 4H41.125L40.125 8H35.5L36.5 4Z" fill="white"/>
<path d="M31.875 3L36.5 4L35.5 8L31.875 7V3Z" fill="white"/>
<path d="M31.875 3L36.5 4L35.5 8L31.875 7V3Z" fill="white"/>
<path d="M28.5 3H31.875V7H28.5V3Z" fill="white"/>
<path d="M28.5 3H31.875V7H28.5V3Z" fill="white"/>
<path d="M28.5 7H31.875L32.5 11H28.5V7Z" fill="white"/>
<path d="M28.5 7H31.875L32.5 11H28.5V7Z" fill="white"/>
<path d="M28.5 11H32.5V15H28.5V11Z" fill="white"/>
<path d="M28.5 11H32.5V15H28.5V11Z" fill="white"/>
<path d="M28.5 15H32.5V19H28.5V15Z" fill="white"/>
<path d="M28.5 15H32.5V19H28.5V15Z" fill="white"/>
<path d="M8.5 0.5H12.5V4.5H8.5V0.5Z" fill="white"/>
<path d="M8.5 0.5H12.5V4.5H8.5V0.5Z" fill="white"/>
<path d="M4.5 4.5H8.5V8.5H4.5V4.5Z" fill="white"/>
<path d="M4.5 4.5H8.5V8.5H4.5V4.5Z" fill="white"/>
<path d="M4.5 12.5H8.5V16.5H4.5V12.5Z" fill="white"/>
<path d="M4.5 12.5H8.5V16.5H4.5V12.5Z" fill="white"/>
<path d="M8.5 16.5H12.5V20.5H8.5V16.5Z" fill="white"/>
<path d="M8.5 16.5H12.5V20.5H8.5V16.5Z" fill="white"/>
<path d="M0.5 8.5H4.5V12.5H0.5V8.5Z" fill="white"/>
<path d="M0.5 8.5H4.5V12.5H0.5V8.5Z" fill="white"/>
<path d="M8.5 0.5H12.5V4.5H8.5V0.5Z" fill="white"/>
<path d="M8.5 0.5H12.5V4.5H8.5V0.5Z" fill="white"/>
<path d="M4.5 4.5H8.5V8.5H4.5V4.5Z" fill="white"/>
<path d="M4.5 4.5H8.5V8.5H4.5V4.5Z" fill="white"/>
<path d="M4.5 12.5H8.5V16.5H4.5V12.5Z" fill="white"/>
<path d="M4.5 12.5H8.5V16.5H4.5V12.5Z" fill="white"/>
<path d="M8.5 16.5H12.5V20.5H8.5V16.5Z" fill="white"/>
<path d="M8.5 16.5H12.5V20.5H8.5V16.5Z" fill="white"/>
<path d="M0.5 8.5H4.5V12.5H0.5V8.5Z" fill="white"/>
<path d="M0.5 8.5H4.5V12.5H0.5V8.5Z" fill="white"/>
<path d="M46 3H50V7H46V3Z" fill="white"/>
<path d="M46 3H50V7H46V3Z" fill="white"/>
<path d="M46 3H50V7H46V3Z" fill="white"/>
<path d="M46 3H50V7H46V3Z" fill="white"/>
<path d="M50 7H54V11H50V7Z" fill="white"/>
<path d="M50 7H54V11H50V7Z" fill="white"/>
<path d="M50 7H54V11H50V7Z" fill="white"/>
<path d="M50 7H54V11H50V7Z" fill="white"/>
<path d="M54 11H58V15H54V11Z" fill="white"/>
<path d="M54 11H58V15H54V11Z" fill="white"/>
<path d="M54 11H58V15H54V11Z" fill="white"/>
<path d="M54 11H58V15H54V11Z" fill="white"/>
<path d="M50 15H54V19H50V15Z" fill="white"/>
<path d="M50 15H54V19H50V15Z" fill="white"/>
<path d="M50 15H54V19H50V15Z" fill="white"/>
<path d="M50 15H54V19H50V15Z" fill="white"/>
<path d="M46 19H50V23H46V19Z" fill="white"/>
<path d="M46 19H50V23H46V19Z" fill="white"/>
<path d="M46 19H50V23H46V19Z" fill="white"/>
<path d="M46 19H50V23H46V19Z" fill="white"/>
</svg>
