<svg width="48" height="24" viewBox="0 0 48 24" fill="none" xmlns="http://www.w3.org/2000/svg">
<path d="M30 2H36C37.3132 2 38.6136 2.25866 39.8268 2.7612C41.0401 3.26375 42.1425 4.00035 43.0711 4.92893C43.9997 5.85752 44.7362 6.95991 45.2388 8.17317C45.7413 9.38642 46 10.6868 46 12C46 13.3132 45.7413 14.6136 45.2388 15.8268C44.7362 17.0401 43.9997 18.1425 43.0711 19.0711C42.1425 19.9997 41.0401 20.7362 39.8268 21.2388C38.6136 21.7413 37.3132 22 36 22H30M18 22H12C10.6868 22 9.38642 21.7413 8.17317 21.2388C6.95991 20.7362 5.85752 19.9997 4.92893 19.0711C3.05357 17.1957 2 14.6522 2 12C2 9.34784 3.05357 6.8043 4.92893 4.92893C6.8043 3.05357 9.34784 2 12 2H18M16 12H32" stroke="#757575" stroke-width="4" stroke-linecap="round" stroke-linejoin="round"/>
</svg>
